# xmcd
#
# Track frame offsets: 
#        150
#        11418
#        21463
#        35961
#        52336
#        65229
#        84592
#        97515
#        110623
#        124513
#        137174
#        158468
#        171561
#        191552
#        198531
#
# Disc length: 2808 seconds
#
# Revision: 5
# Processed by: cddbd v1.5.2PL0 Copyright (c) Steve Scherf et al.
# Submitted via: ExactAudioCopyFreeDBPlugin 1.0
#
DISCID=d60af60f
DTITLE=Various Artist - Blues Giants 1
DYEAR=1900
DGENRE=Blues
TTITLE0=John Lee Hooker - Boom Boom
TTITLE1=Screaming Jay Hawkins - I Put A Spell On You
TTITLE2=B.B.King - Mr. Pawnbroker
TTITLE3=Bukka White - Shake 'Em On Down
TTITLE4=Lonnie Johnson - Mr. Johnsons Swing
TTITLE5=John Mayhall - Road Show
TTITLE6=Robert Johnson - When You've Got A Friend
TTITLE7=Missisissippi Fred McDowell - Big Fat Mama
TTITLE8=Memphis Slim - Messin' Around
TTITLE9=Jimmy Reed - Shame Shame Shame
TTITLE10=T-Bone Walker - Stormy Monday Blues
TTITLE11=Piano Rep - The Right String But The Wrong Yo Yo
TTITLE12=Etta Jamaes - I'd Rather Go Blind
TTITLE13=Noel Boggs and Friends - Blues Boogie
TTITLE14=Bo Diddley - Can I Go Home With You
EXTD=Eigentümer Daniel Perlick
EXTT0=
EXTT1=
EXTT2=
EXTT3=
EXTT4=
EXTT5=
EXTT6=
EXTT7=
EXTT8=
EXTT9=
EXTT10=
EXTT11=
EXTT12=
EXTT13=
EXTT14=
PLAYORDER=
